<svg xmlns="http://www.w3.org/2000/svg" viewBox="0 0 99 63"><defs><style>.cls-1{fill:#231f20;}</style></defs><title>Personal Logo</title><g id="Layer_2" data-name="Layer 2"><g id="Layer_1-2" data-name="Layer 1"><path class="cls-1" d="M0,27H0A18,18,0,0,1,18,45V63a0,0,0,0,1,0,0h0A18,18,0,0,1,0,45V27a0,0,0,0,1,0,0Z"/><path class="cls-1" d="M27,0H45a0,0,0,0,1,0,0V45A18,18,0,0,1,27,63h0a0,0,0,0,1,0,0V0A0,0,0,0,1,27,0Z"/><path class="cls-1" d="M54,0h0A18,18,0,0,1,72,18V63a0,0,0,0,1,0,0H54a0,0,0,0,1,0,0V0A0,0,0,0,1,54,0Z"/><path class="cls-1" d="M81,0h0A18,18,0,0,1,99,18V63a0,0,0,0,1,0,0H81a0,0,0,0,1,0,0V0A0,0,0,0,1,81,0Z"/></g></g></svg>